<svg width="32" height="32" viewBox="0 0 24 24" fill="#c6007f" xmlns="http://www.w3.org/2000/svg">
<path d="M9.057 10.6459L8.20032 11.4999H9.41002H17C17.1326 11.4999 17.2598 11.5526 17.3536 11.6464C17.4473 11.7402 17.5 11.8673 17.5 11.9999C17.5 12.1326 17.4473 12.2597 17.3536 12.3535C17.2598 12.4473 17.1326 12.4999 17 12.4999H9.41002H8.20032L9.057 13.354L12.357 16.644L12.3579 16.6449C12.4048 16.6914 12.442 16.7467 12.4674 16.8077C12.4927 16.8686 12.5058 16.9339 12.5058 16.9999C12.5058 17.0659 12.4927 17.1313 12.4674 17.1922C12.442 17.2532 12.4048 17.3085 12.3579 17.3549L12.3579 17.3549L12.355 17.3578C12.3085 17.4047 12.2532 17.4419 12.1923 17.4673C12.1314 17.4927 12.066 17.5057 12 17.5057C11.934 17.5057 11.8687 17.4927 11.8077 17.4673C11.7468 17.4419 11.6915 17.4047 11.645 17.3578L11.6436 17.3564L6.64809 12.3609C6.60406 12.3141 6.56946 12.2592 6.5462 12.1992L6.5463 12.1992L6.54251 12.1899C6.4925 12.0682 6.4925 11.9317 6.54251 11.8099L6.5426 11.81L6.5462 11.8007C6.56946 11.7407 6.60406 11.6858 6.64809 11.639L11.6436 6.64349L11.2919 6.29177L11.6436 6.64349C11.7381 6.54896 11.8663 6.49585 12 6.49585C12.1337 6.49585 12.2619 6.54896 12.3565 6.64349C12.451 6.73803 12.5041 6.86625 12.5041 6.99994C12.5041 7.13356 12.4511 7.26171 12.3566 7.35623C12.3566 7.35628 12.3565 7.35633 12.3565 7.35639L9.057 10.6459Z" stroke="#c6007f"/>
</svg>
